<svg xmlns="http://www.w3.org/2000/svg" width="1280" height="800" viewBox="0 0 1280 800" role="img" aria-label="K-Means Clustering UMP">
  <title>K-Means Clustering UMP</title>

  <rect width="1280" height="800" fill="#F8FAFC"/>
  <rect x="0" y="0" width="1280" height="72" fill="#0F172A"/>
  <circle cx="40" cy="36" r="7" fill="#334155"/>
  <circle cx="64" cy="36" r="7" fill="#334155"/>
  <circle cx="88" cy="36" r="7" fill="#334155"/>
  <rect x="120" y="22" width="520" height="28" rx="8" fill="#1E293B"/>
  <text x="136" y="42" font-family="Inter, 'Segoe UI', system-ui, sans-serif" font-size="15" fill="#94A3B8">K-Means Clustering UMP</text>
  <text x="1240" y="42" font-family="Inter, 'Segoe UI', system-ui, sans-serif" font-size="13" font-weight="600"
        fill="#60A5FA" text-anchor="end">PLACEHOLDER — klaster provinsi</text>
  <rect x="0" y="72" width="1280" height="728" fill="#FFFFFF"/>
<rect x="40" y="104" width="1200" height="96" rx="16" fill="#F8FAFC" stroke="#E2E8F0" stroke-width="1.5"/>
  <text x="72" y="152" font-family="Inter, 'Segoe UI', system-ui, sans-serif" font-size="22" font-weight="700" fill="#0F172A" text-anchor="start">Hasil K-Means Clustering Provinsi</text>
  <text x="72" y="180" font-family="Inter, 'Segoe UI', system-ui, sans-serif" font-size="15" font-weight="500" fill="#64748B" text-anchor="start">Pengelompokan berdasarkan pola upah minimum 1997–2026</text>
  <rect x="1016" y="128" width="192" height="48" rx="12" fill="#FFFFFF" stroke="#E2E8F0" stroke-width="1.5"/>
  <text x="1112" y="158" font-family="Inter, 'Segoe UI', system-ui, sans-serif" font-size="15" font-weight="600" fill="#0F172A" text-anchor="middle">k = 4 klaster</text>
  <rect x="40" y="224" width="792" height="544" rx="16" fill="#FFFFFF" stroke="#E2E8F0" stroke-width="1.5"/>
  <text x="72" y="264" font-family="Inter, 'Segoe UI', system-ui, sans-serif" font-size="18" font-weight="700" fill="#0F172A" text-anchor="start">Sebaran Provinsi per Klaster</text>
  <rect x="88" y="300" width="712" height="400" rx="12" fill="#F8FAFC" stroke="#E2E8F0"/>
  <line x1="88" y1="600" x2="800" y2="600" stroke="#CBD5E1" stroke-width="2"/>
  <line x1="88" y1="300" x2="88" y2="600" stroke="#CBD5E1" stroke-width="2"/>
  <circle cx="180" cy="560" r="9" fill="#2563EB" opacity="0.75"/>
  <circle cx="230" cy="540" r="9" fill="#2563EB" opacity="0.75"/>
  <circle cx="210" cy="575" r="9" fill="#2563EB" opacity="0.75"/>
  <circle cx="270" cy="520" r="9" fill="#2563EB" opacity="0.75"/>
  <circle cx="200" cy="590" r="9" fill="#2563EB" opacity="0.75"/>
  <circle cx="250" cy="560" r="9" fill="#2563EB" opacity="0.75"/>
  <circle cx="360" cy="480" r="9" fill="#7C3AED" opacity="0.75"/>
  <circle cx="400" cy="505" r="9" fill="#7C3AED" opacity="0.75"/>
  <circle cx="380" cy="460" r="9" fill="#7C3AED" opacity="0.75"/>
  <circle cx="440" cy="490" r="9" fill="#7C3AED" opacity="0.75"/>
  <circle cx="350" cy="520" r="9" fill="#7C3AED" opacity="0.75"/>
  <circle cx="420" cy="460" r="9" fill="#7C3AED" opacity="0.75"/>
  <circle cx="520" cy="420" r="9" fill="#0EA5E9" opacity="0.75"/>
  <circle cx="560" cy="445" r="9" fill="#0EA5E9" opacity="0.75"/>
  <circle cx="540" cy="400" r="9" fill="#0EA5E9" opacity="0.75"/>
  <circle cx="600" cy="430" r="9" fill="#0EA5E9" opacity="0.75"/>
  <circle cx="580" cy="460" r="9" fill="#0EA5E9" opacity="0.75"/>
  <circle cx="620" cy="405" r="9" fill="#0EA5E9" opacity="0.75"/>
  <circle cx="690" cy="350" r="9" fill="#10B981" opacity="0.75"/>
  <circle cx="720" cy="375" r="9" fill="#10B981" opacity="0.75"/>
  <circle cx="700" cy="330" r="9" fill="#10B981" opacity="0.75"/>
  <circle cx="755" cy="370" r="9" fill="#10B981" opacity="0.75"/>
  <circle cx="680" cy="390" r="9" fill="#10B981" opacity="0.75"/>
  <circle cx="740" cy="345" r="9" fill="#10B981" opacity="0.75"/>
  <text x="96" y="640" font-family="Inter, 'Segoe UI', system-ui, sans-serif" font-size="14" font-weight="500" fill="#64748B" text-anchor="start">UMP awal (tahun dasar)</text>
  <text x="792" y="320" font-family="Inter, 'Segoe UI', system-ui, sans-serif" font-size="14" font-weight="500" fill="#64748B" text-anchor="end">Pertumbuhan</text>
  <g transform="translate(96,652)">
  <circle cx="6" cy="6" r="7" fill="#2563EB"/><text x="22" y="11" font-family="Inter, 'Segoe UI', system-ui, sans-serif" font-size="13" font-weight="500" fill="#1E293B" text-anchor="start">Klaster 1</text>
  <circle cx="126" cy="6" r="7" fill="#7C3AED"/><text x="142" y="11" font-family="Inter, 'Segoe UI', system-ui, sans-serif" font-size="13" font-weight="500" fill="#1E293B" text-anchor="start">Klaster 2</text>
  <circle cx="246" cy="6" r="7" fill="#0EA5E9"/><text x="262" y="11" font-family="Inter, 'Segoe UI', system-ui, sans-serif" font-size="13" font-weight="500" fill="#1E293B" text-anchor="start">Klaster 3</text>
  <circle cx="366" cy="6" r="7" fill="#10B981"/><text x="382" y="11" font-family="Inter, 'Segoe UI', system-ui, sans-serif" font-size="13" font-weight="500" fill="#1E293B" text-anchor="start">Klaster 4</text>
  </g>
  <rect x="856" y="224" width="384" height="544" rx="16" fill="#FFFFFF" stroke="#E2E8F0" stroke-width="1.5"/>
  <text x="888" y="264" font-family="Inter, 'Segoe UI', system-ui, sans-serif" font-size="18" font-weight="700" fill="#0F172A" text-anchor="start">Profil Klaster</text>
  <rect x="880" y="292" width="336" height="96" rx="12" fill="#F8FAFC" stroke="#E2E8F0" stroke-width="1.5"/>
  <rect x="880" y="292" width="6" height="96" rx="3" fill="#2563EB"/>
  <text x="904" y="330" font-family="Inter, 'Segoe UI', system-ui, sans-serif" font-size="16" font-weight="700" fill="#0F172A" text-anchor="start">Klaster 1</text>
  <text x="904" y="358" font-family="Inter, 'Segoe UI', system-ui, sans-serif" font-size="13" font-weight="500" fill="#64748B" text-anchor="start">Upah rendah, pertumbuhan lambat</text>
  <rect x="880" y="408" width="336" height="96" rx="12" fill="#F8FAFC" stroke="#E2E8F0" stroke-width="1.5"/>
  <rect x="880" y="408" width="6" height="96" rx="3" fill="#7C3AED"/>
  <text x="904" y="446" font-family="Inter, 'Segoe UI', system-ui, sans-serif" font-size="16" font-weight="700" fill="#0F172A" text-anchor="start">Klaster 2</text>
  <text x="904" y="474" font-family="Inter, 'Segoe UI', system-ui, sans-serif" font-size="13" font-weight="500" fill="#64748B" text-anchor="start">Upah rendah, pertumbuhan sedang</text>
  <rect x="880" y="524" width="336" height="96" rx="12" fill="#F8FAFC" stroke="#E2E8F0" stroke-width="1.5"/>
  <rect x="880" y="524" width="6" height="96" rx="3" fill="#0EA5E9"/>
  <text x="904" y="562" font-family="Inter, 'Segoe UI', system-ui, sans-serif" font-size="16" font-weight="700" fill="#0F172A" text-anchor="start">Klaster 3</text>
  <text x="904" y="590" font-family="Inter, 'Segoe UI', system-ui, sans-serif" font-size="13" font-weight="500" fill="#64748B" text-anchor="start">Upah menengah, pertumbuhan stabil</text>
  <rect x="880" y="640" width="336" height="96" rx="12" fill="#F8FAFC" stroke="#E2E8F0" stroke-width="1.5"/>
  <rect x="880" y="640" width="6" height="96" rx="3" fill="#10B981"/>
  <text x="904" y="678" font-family="Inter, 'Segoe UI', system-ui, sans-serif" font-size="16" font-weight="700" fill="#0F172A" text-anchor="start">Klaster 4</text>
  <text x="904" y="706" font-family="Inter, 'Segoe UI', system-ui, sans-serif" font-size="13" font-weight="500" fill="#64748B" text-anchor="start">Upah tinggi, pertumbuhan cepat</text>
</svg>
